# xmcd
#
# Track frame offsets: 
#        150
#        28491
#        56328
#        81587
#        108924
#        142631
#        159928
#        181221
#        200522
#        226858
#        250691
#        279114
#        295390
#
# Disc length: 4336 seconds
#
# Revision: 0
# Processed by: cddbd v1.5.2PL0 Copyright (c) Steve Scherf et al.
# Submitted via: ExactAudioCopy v1.3
#
DISCID=a910ee0d
DTITLE=Gregg A. Smith - Caravan of Dreams (Live)
DYEAR=2012
DGENRE=Blues
TTITLE0=24 Hours a Day (Live)
TTITLE1=Hurt Before You Heal (Live)
TTITLE2=You Are (Live)
TTITLE3=Stand By Me (Live)
TTITLE4=Blues In My Blood (Live)
TTITLE5=Stuck On You (Live)
TTITLE6=Angel (Live)
TTITLE7=Money Talks (Live)
TTITLE8=Stick and Stay (Live)
TTITLE9=The Lowdown (Live)
TTITLE10=The Thrill Is Gone (Live)
TTITLE11=Party Warrior (Live)
TTITLE12=Knockin' On Heaven's Door (Live)
EXTD=
EXTT0=
EXTT1=
EXTT2=
EXTT3=
EXTT4=
EXTT5=
EXTT6=
EXTT7=
EXTT8=
EXTT9=
EXTT10=
EXTT11=
EXTT12=
PLAYORDER=
